# xmcd CD database file
#
# Track frame offsets:
#	150
#	20650
#	37359
#	56480
#	81485
#	102046
#	119119
#	138384
#	159302
#	177510
#	198010
#
# Disc length: 2861 seconds
#
# Revision: 0
# Processed by: cddbd v1.5.2PL0 Copyright (c) Steve Scherf et al.
# Submitted via: CDex 1.70beta2
#
DISCID=9b0b2b0b
DTITLE=Chambao - Endorfinas en la mente
DYEAR=2004
DGENRE=New Age
TTITLE0=Chambao
TTITLE1=Lo verás
TTITLE2=Desconocido
TTITLE3=Ahí estás tú (álbum version)
TTITLE4=Vida
TTITLE5=Volando voy
TTITLE6=Los muchachos de mi barrio
TTITLE7=Mejor me quedo aquí
TTITLE8=Una de tantas
TTITLE9=As de corazones (álbum version)
TTITLE10=Olvidarme de ti
EXTD=YEAR: 2004
EXTT0=
EXTT1=
EXTT2=
EXTT3=
EXTT4=
EXTT5=
EXTT6=
EXTT7=
EXTT8=
EXTT9=
EXTT10=
PLAYORDER=
